<?xml version="1.0" encoding="utf-8"?>
<svg viewBox="0 0.316 129.706 129.706" xmlns="http://www.w3.org/2000/svg">
  <path style="stroke: rgb(0, 0, 0); stroke-width: 0px; fill: #fff;" d="M 7.842 43.982 C -5.385 40.318 6.861 41.54 19.977 37.333 C 41.367 30.471 52.349 11.854 64.003 19.636 C 83.669 32.768 38.992 107.086 39.004 100.854 C 39.016 94.486 51.961 63.879 43.543 51.892 C 36.753 42.223 22.456 48.03 7.842 43.982 Z"/>
  <path style="stroke: rgb(0, 0, 0); stroke-width: 0px; paint-order: fill; fill: #fff;" d="M 126.435 14.114 C 132.509 21.604 115.703 21.825 99.718 33.273 C 81.314 46.452 120.716 42.438 113.407 50.796 C 105.769 59.529 93.364 52.008 80.967 65.038 C 62.235 84.726 73.816 133.366 62.057 120.365 C 46.701 103.387 58.177 86.821 67.44 65.886 C 74.168 50.681 75.433 22.829 89.426 14.527 C 104.407 5.639 123.105 10.008 126.435 14.114 Z"/>
</svg>
